<svg width="100" height="100" viewBox="0 0 100 100" fill="none" xmlns="http://www.w3.org/2000/svg">
<path d="M12.5 21.875C11.6712 21.875 10.8763 22.2043 10.2903 22.7903C9.70424 23.3764 9.375 24.1712 9.375 25C9.375 25.8288 9.70424 26.6237 10.2903 27.2097C10.8763 27.7958 11.6712 28.125 12.5 28.125H19.4375L27.6375 60.9375C28.3344 63.7188 30.825 65.625 33.6906 65.625H72.6594C75.4812 65.625 77.8781 63.75 78.6188 61.0313L86.7188 31.25H80.175L72.6562 59.375H33.6875L25.4906 26.5625C25.152 25.2163 24.3715 24.0228 23.274 23.1729C22.1765 22.323 20.8256 21.866 19.4375 21.875H12.5ZM68.75 65.625C63.6094 65.625 59.375 69.8594 59.375 75C59.375 80.1406 63.6094 84.375 68.75 84.375C73.8906 84.375 78.125 80.1406 78.125 75C78.125 69.8594 73.8906 65.625 68.75 65.625ZM40.625 65.625C35.4844 65.625 31.25 69.8594 31.25 75C31.25 80.1406 35.4844 84.375 40.625 84.375C45.7656 84.375 50 80.1406 50 75C50 69.8594 45.7656 65.625 40.625 65.625ZM50 21.875V37.5H40.625L53.125 50L65.625 37.5H56.25V21.875H50ZM40.625 71.875C42.3875 71.875 43.75 73.2375 43.75 75C43.75 76.7625 42.3875 78.125 40.625 78.125C38.8625 78.125 37.5 76.7625 37.5 75C37.5 73.2375 38.8625 71.875 40.625 71.875ZM68.75 71.875C70.5125 71.875 71.875 73.2375 71.875 75C71.875 76.7625 70.5125 78.125 68.75 78.125C66.9875 78.125 65.625 76.7625 65.625 75C65.625 73.2375 66.9875 71.875 68.75 71.875Z" fill="black"/>
</svg>
